<?xml version="1.0" encoding="UTF-8" standalone="no"?>
<!DOCTYPE svg PUBLIC "-//W3C//DTD SVG 1.1//EN"
 "http://www.w3.org/Graphics/SVG/1.1/DTD/svg11.dtd">
<!-- Generated by graphviz version 2.40.1 (20161225.0304)
 -->
<!-- Title: dependencies Pages: 1 -->
<svg width="989pt" height="211pt"
 viewBox="0.00 0.00 989.00 211.00" xmlns="http://www.w3.org/2000/svg" xmlns:xlink="http://www.w3.org/1999/xlink">
<g id="graph0" class="graph" transform="scale(1 1) rotate(0) translate(4 207)">
<title>dependencies</title>
<polygon fill="#ffffff" stroke="transparent" points="-4,4 -4,-207 985,-207 985,4 -4,4"/>
<text text-anchor="start" x="469.5091" y="-42.4" font-family="sans-serif" font-weight="bold" font-size="14.00" fill="#000000">Legend</text>
<polygon fill="#ffffb3" stroke="transparent" points="256.5,-10 256.5,-30 276.5,-30 276.5,-10 256.5,-10"/>
<text text-anchor="start" x="280.129" y="-15.4" font-family="sans-serif" font-size="14.00" fill="#000000"> &#160;Declarations</text>
<polygon fill="#8dd3c7" stroke="transparent" points="369.5,-10 369.5,-30 389.5,-30 389.5,-10 369.5,-10"/>
<text text-anchor="start" x="393.2251" y="-15.4" font-family="sans-serif" font-size="14.00" fill="#000000"> &#160;Module</text>
<polygon fill="#80b1d3" stroke="transparent" points="455.5,-10 455.5,-30 475.5,-30 475.5,-10 455.5,-10"/>
<text text-anchor="start" x="479.2812" y="-15.4" font-family="sans-serif" font-size="14.00" fill="#000000"> &#160;Bootstrap</text>
<polygon fill="#fdb462" stroke="transparent" points="552.5,-10 552.5,-30 572.5,-30 572.5,-10 552.5,-10"/>
<text text-anchor="start" x="576.1732" y="-15.4" font-family="sans-serif" font-size="14.00" fill="#000000"> &#160;Providers</text>
<polygon fill="#fb8072" stroke="transparent" points="648.5,-10 648.5,-30 668.5,-30 668.5,-10 648.5,-10"/>
<text text-anchor="start" x="672.2258" y="-15.4" font-family="sans-serif" font-size="14.00" fill="#000000"> &#160;Exports</text>
<g id="clust1" class="cluster">
<title>cluster_ContainersModule</title>
<polygon fill="none" stroke="#000000" stroke-dasharray="1,5" points="8,-70 8,-195 973,-195 973,-70 8,-70"/>
</g>
<g id="clust2" class="cluster">
<title>cluster_ContainersModule_declarations</title>
<polygon fill="none" stroke="#000000" points="172,-78 172,-130 965,-130 965,-78 172,-78"/>
</g>
<g id="clust9" class="cluster">
<title>cluster_ContainersModule_imports</title>
<polygon fill="none" stroke="#000000" points="16,-78 16,-130 164,-130 164,-78 16,-78"/>
</g>
<!-- AboutComponent -->
<g id="node1" class="node">
<title>AboutComponent</title>
<polygon fill="#ffffb3" stroke="#000000" points="957.3301,-122 840.6699,-122 840.6699,-86 957.3301,-86 957.3301,-122"/>
<text text-anchor="middle" x="899" y="-99.8" font-family="Times,serif" font-size="14.00" fill="#000000">AboutComponent</text>
</g>
<!-- ContainersModule -->
<g id="node7" class="node">
<title>ContainersModule</title>
<polygon fill="#8dd3c7" stroke="#000000" points="566.2022,-187 563.2022,-191 542.2022,-191 539.2022,-187 445.7978,-187 445.7978,-151 566.2022,-151 566.2022,-187"/>
<text text-anchor="middle" x="506" y="-164.8" font-family="Times,serif" font-size="14.00" fill="#000000">ContainersModule</text>
</g>
<!-- AboutComponent&#45;&gt;ContainersModule -->
<g id="edge1" class="edge">
<title>AboutComponent&#45;&gt;ContainersModule</title>
<path fill="none" stroke="#000000" d="M899,-122.2843C899,-143.3211 899,-175 899,-175 899,-175 576.116,-175 576.116,-175"/>
<polygon fill="#000000" stroke="#000000" points="576.1161,-171.5001 566.116,-175 576.116,-178.5001 576.1161,-171.5001"/>
</g>
<!-- HomeComponent -->
<g id="node2" class="node">
<title>HomeComponent</title>
<polygon fill="#ffffb3" stroke="#000000" points="822.5451,-122 707.4549,-122 707.4549,-86 822.5451,-86 822.5451,-122"/>
<text text-anchor="middle" x="765" y="-99.8" font-family="Times,serif" font-size="14.00" fill="#000000">HomeComponent</text>
</g>
<!-- HomeComponent&#45;&gt;ContainersModule -->
<g id="edge2" class="edge">
<title>HomeComponent&#45;&gt;ContainersModule</title>
<path fill="none" stroke="#000000" d="M765,-122.0225C765,-139.3734 765,-163 765,-163 765,-163 576.3971,-163 576.3971,-163"/>
<polygon fill="#000000" stroke="#000000" points="576.3972,-159.5001 566.3971,-163 576.3971,-166.5001 576.3972,-159.5001"/>
</g>
<!-- OtherComponent -->
<g id="node3" class="node">
<title>OtherComponent</title>
<polygon fill="#ffffb3" stroke="#000000" points="689.705,-122 576.295,-122 576.295,-86 689.705,-86 689.705,-122"/>
<text text-anchor="middle" x="633" y="-99.8" font-family="Times,serif" font-size="14.00" fill="#000000">OtherComponent</text>
</g>
<!-- OtherComponent&#45;&gt;ContainersModule -->
<g id="edge3" class="edge">
<title>OtherComponent&#45;&gt;ContainersModule</title>
<path fill="none" stroke="#000000" d="M576.3588,-104C568.1528,-104 562.4131,-104 562.4131,-104 562.4131,-104 562.4131,-140.8939 562.4131,-140.8939"/>
<polygon fill="#000000" stroke="#000000" points="558.9131,-140.8938 562.4131,-150.8939 565.9131,-140.8939 558.9131,-140.8938"/>
</g>
<!-- PostComponent -->
<g id="node4" class="node">
<title>PostComponent</title>
<polygon fill="#ffffb3" stroke="#000000" points="558.9512,-122 453.0488,-122 453.0488,-86 558.9512,-86 558.9512,-122"/>
<text text-anchor="middle" x="506" y="-99.8" font-family="Times,serif" font-size="14.00" fill="#000000">PostComponent</text>
</g>
<!-- PostComponent&#45;&gt;ContainersModule -->
<g id="edge4" class="edge">
<title>PostComponent&#45;&gt;ContainersModule</title>
<path fill="none" stroke="#000000" d="M506,-122.1061C506,-122.1061 506,-140.991 506,-140.991"/>
<polygon fill="#000000" stroke="#000000" points="502.5001,-140.9909 506,-150.991 509.5001,-140.991 502.5001,-140.9909"/>
</g>
<!-- PostsComponent -->
<g id="node5" class="node">
<title>PostsComponent</title>
<polygon fill="#ffffb3" stroke="#000000" points="435.3948,-122 324.6052,-122 324.6052,-86 435.3948,-86 435.3948,-122"/>
<text text-anchor="middle" x="380" y="-99.8" font-family="Times,serif" font-size="14.00" fill="#000000">PostsComponent</text>
</g>
<!-- PostsComponent&#45;&gt;ContainersModule -->
<g id="edge5" class="edge">
<title>PostsComponent&#45;&gt;ContainersModule</title>
<path fill="none" stroke="#000000" d="M435.505,-104C443.7725,-104 449.587,-104 449.587,-104 449.587,-104 449.587,-140.8939 449.587,-140.8939"/>
<polygon fill="#000000" stroke="#000000" points="446.087,-140.8938 449.587,-150.8939 453.087,-140.8939 446.087,-140.8938"/>
</g>
<!-- SidenavComponent -->
<g id="node6" class="node">
<title>SidenavComponent</title>
<polygon fill="#ffffb3" stroke="#000000" points="306.4356,-122 179.5644,-122 179.5644,-86 306.4356,-86 306.4356,-122"/>
<text text-anchor="middle" x="243" y="-99.8" font-family="Times,serif" font-size="14.00" fill="#000000">SidenavComponent</text>
</g>
<!-- SidenavComponent&#45;&gt;ContainersModule -->
<g id="edge6" class="edge">
<title>SidenavComponent&#45;&gt;ContainersModule</title>
<path fill="none" stroke="#000000" d="M243,-122.0225C243,-139.3734 243,-163 243,-163 243,-163 435.6625,-163 435.6625,-163"/>
<polygon fill="#000000" stroke="#000000" points="435.6625,-166.5001 445.6625,-163 435.6625,-159.5001 435.6625,-166.5001"/>
</g>
<!-- AppMaterialModule -->
<g id="node8" class="node">
<title>AppMaterialModule</title>
<polygon fill="#8dd3c7" stroke="#000000" points="155.5772,-122 152.5772,-126 131.5772,-126 128.5772,-122 24.4228,-122 24.4228,-86 155.5772,-86 155.5772,-122"/>
<text text-anchor="middle" x="90" y="-99.8" font-family="Times,serif" font-size="14.00" fill="#000000">AppMaterialModule</text>
</g>
<!-- AppMaterialModule&#45;&gt;ContainersModule -->
<g id="edge7" class="edge">
<title>AppMaterialModule&#45;&gt;ContainersModule</title>
<path fill="none" stroke="#000000" d="M90,-122.2843C90,-143.3211 90,-175 90,-175 90,-175 435.51,-175 435.51,-175"/>
<polygon fill="#000000" stroke="#000000" points="435.5101,-178.5001 445.51,-175 435.51,-171.5001 435.5101,-178.5001"/>
</g>
</g>
</svg>
