<?xml version="1.0" encoding="UTF-8" standalone="no"?>
<!DOCTYPE svg PUBLIC "-//W3C//DTD SVG 1.1//EN"
 "http://www.w3.org/Graphics/SVG/1.1/DTD/svg11.dtd">
<!-- Generated by graphviz version 2.40.1 (20161225.0304)
 -->
<!-- Title: dependencies Pages: 1 -->
<svg width="1543pt" height="352pt"
 viewBox="0.00 0.00 1543.00 352.00" xmlns="http://www.w3.org/2000/svg" xmlns:xlink="http://www.w3.org/1999/xlink">
<g id="graph0" class="graph" transform="scale(1 1) rotate(0) translate(4 348)">
<title>dependencies</title>
<polygon fill="#ffffff" stroke="transparent" points="-4,4 -4,-348 1539,-348 1539,4 -4,4"/>
<text text-anchor="start" x="746.5091" y="-42.4" font-family="sans-serif" font-weight="bold" font-size="14.00" fill="#000000">Legend</text>
<polygon fill="#ffffb3" stroke="transparent" points="533.5,-10 533.5,-30 553.5,-30 553.5,-10 533.5,-10"/>
<text text-anchor="start" x="557.129" y="-15.4" font-family="sans-serif" font-size="14.00" fill="#000000"> &#160;Declarations</text>
<polygon fill="#8dd3c7" stroke="transparent" points="646.5,-10 646.5,-30 666.5,-30 666.5,-10 646.5,-10"/>
<text text-anchor="start" x="670.2251" y="-15.4" font-family="sans-serif" font-size="14.00" fill="#000000"> &#160;Module</text>
<polygon fill="#80b1d3" stroke="transparent" points="732.5,-10 732.5,-30 752.5,-30 752.5,-10 732.5,-10"/>
<text text-anchor="start" x="756.2812" y="-15.4" font-family="sans-serif" font-size="14.00" fill="#000000"> &#160;Bootstrap</text>
<polygon fill="#fdb462" stroke="transparent" points="829.5,-10 829.5,-30 849.5,-30 849.5,-10 829.5,-10"/>
<text text-anchor="start" x="853.1732" y="-15.4" font-family="sans-serif" font-size="14.00" fill="#000000"> &#160;Providers</text>
<polygon fill="#fb8072" stroke="transparent" points="925.5,-10 925.5,-30 945.5,-30 945.5,-10 925.5,-10"/>
<text text-anchor="start" x="949.2258" y="-15.4" font-family="sans-serif" font-size="14.00" fill="#000000"> &#160;Exports</text>
<g id="clust7" class="cluster">
<title>cluster_AppModule</title>
<polygon fill="none" stroke="#000000" stroke-dasharray="1,5" points="8,-70 8,-336 710,-336 710,-70 8,-70"/>
</g>
<g id="clust8" class="cluster">
<title>cluster_AppModule_declarations</title>
<polygon fill="none" stroke="#000000" points="318,-146 318,-198 702,-198 702,-146 318,-146"/>
</g>
<g id="clust12" class="cluster">
<title>cluster_AppModule_imports</title>
<polygon fill="none" stroke="#000000" points="16,-78 16,-198 310,-198 310,-78 16,-78"/>
</g>
<g id="clust14" class="cluster">
<title>cluster_AppModule_bootstrap</title>
<polygon fill="none" stroke="#000000" points="248,-276 248,-328 372,-328 372,-276 248,-276"/>
</g>
<g id="clust22" class="cluster">
<title>cluster_ContainersModule</title>
<polygon fill="none" stroke="#000000" stroke-dasharray="1,5" points="718,-70 718,-138 1527,-138 1527,-70 718,-70"/>
</g>
<g id="clust23" class="cluster">
<title>cluster_ContainersModule_declarations</title>
<polygon fill="none" stroke="#000000" points="726,-78 726,-130 1519,-130 1519,-78 726,-78"/>
</g>
<!-- AppComponent -->
<g id="node1" class="node">
<title>AppComponent</title>
<polygon fill="#ffffb3" stroke="#000000" points="693.9399,-190 588.0601,-190 588.0601,-154 693.9399,-154 693.9399,-190"/>
<text text-anchor="middle" x="641" y="-167.8" font-family="Times,serif" font-size="14.00" fill="#000000">AppComponent</text>
</g>
<!-- AppModule -->
<g id="node4" class="node">
<title>AppModule</title>
<polygon fill="#8dd3c7" stroke="#000000" points="351.6571,-255 348.6571,-259 327.6571,-259 324.6571,-255 268.3429,-255 268.3429,-219 351.6571,-219 351.6571,-255"/>
<text text-anchor="middle" x="310" y="-232.8" font-family="Times,serif" font-size="14.00" fill="#000000">AppModule</text>
</g>
<!-- AppComponent&#45;&gt;AppModule -->
<g id="edge1" class="edge">
<title>AppComponent&#45;&gt;AppModule</title>
<path fill="none" stroke="#000000" d="M641,-190.2843C641,-211.3211 641,-243 641,-243 641,-243 361.9214,-243 361.9214,-243"/>
<polygon fill="#000000" stroke="#000000" points="361.9214,-239.5001 351.9214,-243 361.9213,-246.5001 361.9214,-239.5001"/>
</g>
<!-- HeaderComponent -->
<g id="node2" class="node">
<title>HeaderComponent</title>
<polygon fill="#ffffb3" stroke="#000000" points="569.7437,-190 448.2563,-190 448.2563,-154 569.7437,-154 569.7437,-190"/>
<text text-anchor="middle" x="509" y="-167.8" font-family="Times,serif" font-size="14.00" fill="#000000">HeaderComponent</text>
</g>
<!-- HeaderComponent&#45;&gt;AppModule -->
<g id="edge2" class="edge">
<title>HeaderComponent&#45;&gt;AppModule</title>
<path fill="none" stroke="#000000" d="M509,-190.0225C509,-207.3734 509,-231 509,-231 509,-231 361.7169,-231 361.7169,-231"/>
<polygon fill="#000000" stroke="#000000" points="361.717,-227.5001 351.7169,-231 361.7169,-234.5001 361.717,-227.5001"/>
</g>
<!-- NavComponent -->
<g id="node3" class="node">
<title>NavComponent</title>
<polygon fill="#ffffb3" stroke="#000000" points="430.1542,-190 325.8458,-190 325.8458,-154 430.1542,-154 430.1542,-190"/>
<text text-anchor="middle" x="378" y="-167.8" font-family="Times,serif" font-size="14.00" fill="#000000">NavComponent</text>
</g>
<!-- NavComponent&#45;&gt;AppModule -->
<g id="edge3" class="edge">
<title>NavComponent&#45;&gt;AppModule</title>
<path fill="none" stroke="#000000" d="M338.7507,-190.1061C338.7507,-190.1061 338.7507,-208.991 338.7507,-208.991"/>
<polygon fill="#000000" stroke="#000000" points="335.2508,-208.9909 338.7507,-218.991 342.2508,-208.991 335.2508,-208.9909"/>
</g>
<!-- AppComponent  -->
<g id="node8" class="node">
<title>AppComponent </title>
<polygon fill="#80b1d3" stroke="#000000" points="364.439,-320 255.561,-320 255.561,-284 364.439,-284 364.439,-320"/>
<text text-anchor="middle" x="310" y="-297.8" font-family="Times,serif" font-size="14.00" fill="#000000">AppComponent </text>
</g>
<!-- AppModule&#45;&gt;AppComponent  -->
<g id="edge7" class="edge">
<title>AppModule&#45;&gt;AppComponent </title>
<path fill="none" stroke="#000000" stroke-dasharray="1,5" d="M310,-255.1061C310,-255.1061 310,-273.991 310,-273.991"/>
<polygon fill="#000000" stroke="#000000" points="306.5001,-273.9909 310,-283.991 313.5001,-273.991 306.5001,-273.9909"/>
</g>
<!-- AppMaterialModule -->
<g id="node5" class="node">
<title>AppMaterialModule</title>
<polygon fill="#8dd3c7" stroke="#000000" points="301.5772,-122 298.5772,-126 277.5772,-126 274.5772,-122 170.4228,-122 170.4228,-86 301.5772,-86 301.5772,-122"/>
<text text-anchor="middle" x="236" y="-99.8" font-family="Times,serif" font-size="14.00" fill="#000000">AppMaterialModule</text>
</g>
<!-- AppMaterialModule&#45;&gt;AppModule -->
<g id="edge4" class="edge">
<title>AppMaterialModule&#45;&gt;AppModule</title>
<path fill="none" stroke="#000000" d="M301.6516,-110C311.163,-110 317.8158,-110 317.8158,-110 317.8158,-110 317.8158,-208.804 317.8158,-208.804"/>
<polygon fill="#000000" stroke="#000000" points="314.3159,-208.804 317.8158,-218.804 321.3159,-208.804 314.3159,-208.804"/>
</g>
<!-- ContainersModule -->
<g id="node7" class="node">
<title>ContainersModule</title>
<polygon fill="#8dd3c7" stroke="#000000" points="302.2022,-190 299.2022,-194 278.2022,-194 275.2022,-190 181.7978,-190 181.7978,-154 302.2022,-154 302.2022,-190"/>
<text text-anchor="middle" x="242" y="-167.8" font-family="Times,serif" font-size="14.00" fill="#000000">ContainersModule</text>
</g>
<!-- AppMaterialModule&#45;&gt;ContainersModule -->
<g id="edge14" class="edge">
<title>AppMaterialModule&#45;&gt;ContainersModule</title>
<path fill="none" stroke="#000000" d="M198.9904,-122.2228C198.9904,-122.2228 198.9904,-143.7269 198.9904,-143.7269"/>
<polygon fill="#000000" stroke="#000000" points="195.4905,-143.7269 198.9904,-153.7269 202.4905,-143.727 195.4905,-143.7269"/>
</g>
<!-- AppRoutingModule -->
<g id="node6" class="node">
<title>AppRoutingModule</title>
<polygon fill="#8dd3c7" stroke="#000000" points="152.2744,-122 149.2744,-126 128.2744,-126 125.2744,-122 23.7256,-122 23.7256,-86 152.2744,-86 152.2744,-122"/>
<text text-anchor="middle" x="88" y="-99.8" font-family="Times,serif" font-size="14.00" fill="#000000">AppRoutingModule</text>
</g>
<!-- AppRoutingModule&#45;&gt;AppModule -->
<g id="edge5" class="edge">
<title>AppRoutingModule&#45;&gt;AppModule</title>
<path fill="none" stroke="#000000" d="M88,-122.2142C88,-158.6396 88,-237 88,-237 88,-237 258.2435,-237 258.2435,-237"/>
<polygon fill="#000000" stroke="#000000" points="258.2435,-240.5001 268.2435,-237 258.2435,-233.5001 258.2435,-240.5001"/>
</g>
<!-- ContainersModule&#45;&gt;AppModule -->
<g id="edge6" class="edge">
<title>ContainersModule&#45;&gt;AppModule</title>
<path fill="none" stroke="#000000" d="M285.1364,-190.1061C285.1364,-190.1061 285.1364,-208.991 285.1364,-208.991"/>
<polygon fill="#000000" stroke="#000000" points="281.6365,-208.9909 285.1364,-218.991 288.6365,-208.991 281.6365,-208.9909"/>
</g>
<!-- AboutComponent -->
<g id="node9" class="node">
<title>AboutComponent</title>
<polygon fill="#ffffb3" stroke="#000000" points="1511.3301,-122 1394.6699,-122 1394.6699,-86 1511.3301,-86 1511.3301,-122"/>
<text text-anchor="middle" x="1453" y="-99.8" font-family="Times,serif" font-size="14.00" fill="#000000">AboutComponent</text>
</g>
<!-- AboutComponent&#45;&gt;ContainersModule -->
<g id="edge8" class="edge">
<title>AboutComponent&#45;&gt;ContainersModule</title>
<path fill="none" stroke="#000000" d="M1453,-122.0439C1453,-134.5633 1453,-149 1453,-149 1453,-149 284.4472,-149 284.4472,-149 284.4472,-149 284.4472,-149.4878 284.4472,-149.4878"/>
<polygon fill="#000000" stroke="#000000" points="280.9475,-143.8776 284.4472,-153.8777 287.9475,-143.8778 280.9475,-143.8776"/>
</g>
<!-- HomeComponent -->
<g id="node10" class="node">
<title>HomeComponent</title>
<polygon fill="#ffffb3" stroke="#000000" points="1376.5451,-122 1261.4549,-122 1261.4549,-86 1376.5451,-86 1376.5451,-122"/>
<text text-anchor="middle" x="1319" y="-99.8" font-family="Times,serif" font-size="14.00" fill="#000000">HomeComponent</text>
</g>
<!-- HomeComponent&#45;&gt;ContainersModule -->
<g id="edge9" class="edge">
<title>HomeComponent&#45;&gt;ContainersModule</title>
<path fill="none" stroke="#000000" d="M1319,-122.1274C1319,-132.7109 1319,-144 1319,-144 1319,-144 267.3559,-144 267.3559,-144 267.3559,-144 267.3559,-144.9793 267.3559,-144.9793"/>
<polygon fill="#000000" stroke="#000000" points="263.856,-143.793 267.3559,-153.793 270.856,-143.7931 263.856,-143.793"/>
</g>
<!-- OtherComponent -->
<g id="node11" class="node">
<title>OtherComponent</title>
<polygon fill="#ffffb3" stroke="#000000" points="1243.705,-122 1130.295,-122 1130.295,-86 1243.705,-86 1243.705,-122"/>
<text text-anchor="middle" x="1187" y="-99.8" font-family="Times,serif" font-size="14.00" fill="#000000">OtherComponent</text>
</g>
<!-- OtherComponent&#45;&gt;ContainersModule -->
<g id="edge10" class="edge">
<title>OtherComponent&#45;&gt;ContainersModule</title>
<path fill="none" stroke="#000000" d="M1187,-122.1944C1187,-130.2782 1187,-138 1187,-138 1187,-138 250.2645,-138 250.2645,-138 250.2645,-138 250.2645,-143.8056 250.2645,-143.8056"/>
<polygon fill="#000000" stroke="#000000" points="246.7646,-143.8055 250.2645,-153.8056 253.7646,-143.8056 246.7646,-143.8055"/>
</g>
<!-- PostComponent -->
<g id="node12" class="node">
<title>PostComponent</title>
<polygon fill="#ffffb3" stroke="#000000" points="1112.9512,-122 1007.0488,-122 1007.0488,-86 1112.9512,-86 1112.9512,-122"/>
<text text-anchor="middle" x="1060" y="-99.8" font-family="Times,serif" font-size="14.00" fill="#000000">PostComponent</text>
</g>
<!-- PostComponent&#45;&gt;ContainersModule -->
<g id="edge11" class="edge">
<title>PostComponent&#45;&gt;ContainersModule</title>
<path fill="none" stroke="#000000" d="M1060,-122.2015C1060,-128.028 1060,-133 1060,-133 1060,-133 233.1731,-133 233.1731,-133 233.1731,-133 233.1731,-143.8701 233.1731,-143.8701"/>
<polygon fill="#000000" stroke="#000000" points="229.6732,-143.8701 233.1731,-153.8701 236.6732,-143.8701 229.6732,-143.8701"/>
</g>
<!-- PostsComponent -->
<g id="node13" class="node">
<title>PostsComponent</title>
<polygon fill="#ffffb3" stroke="#000000" points="989.3948,-122 878.6052,-122 878.6052,-86 989.3948,-86 989.3948,-122"/>
<text text-anchor="middle" x="934" y="-99.8" font-family="Times,serif" font-size="14.00" fill="#000000">PostsComponent</text>
</g>
<!-- PostsComponent&#45;&gt;ContainersModule -->
<g id="edge12" class="edge">
<title>PostsComponent&#45;&gt;ContainersModule</title>
<path fill="none" stroke="#000000" d="M934,-122.1903C934,-125.5376 934,-128 934,-128 934,-128 216.0817,-128 216.0817,-128 216.0817,-128 216.0817,-143.8495 216.0817,-143.8495"/>
<polygon fill="#000000" stroke="#000000" points="212.5818,-143.8494 216.0817,-153.8495 219.5818,-143.8495 212.5818,-143.8494"/>
</g>
<!-- SidenavComponent -->
<g id="node14" class="node">
<title>SidenavComponent</title>
<polygon fill="#ffffb3" stroke="#000000" points="860.4356,-122 733.5644,-122 733.5644,-86 860.4356,-86 860.4356,-122"/>
<text text-anchor="middle" x="797" y="-99.8" font-family="Times,serif" font-size="14.00" fill="#000000">SidenavComponent</text>
</g>
<!-- SidenavComponent&#45;&gt;ContainersModule -->
<g id="edge13" class="edge">
<title>SidenavComponent&#45;&gt;ContainersModule</title>
<path fill="none" stroke="#000000" d="M733.3278,-98C601.3094,-98 309.9584,-98 309.9584,-98 309.9584,-98 309.9584,-172 309.9584,-172 309.9584,-172 309.1788,-172 309.1788,-172"/>
<polygon fill="#000000" stroke="#000000" points="312.1628,-168.5001 302.1627,-172 312.1627,-175.5001 312.1628,-168.5001"/>
</g>
</g>
</svg>
