<?xml version="1.0" encoding="UTF-8" standalone="no"?>
<!DOCTYPE svg PUBLIC "-//W3C//DTD SVG 1.1//EN"
 "http://www.w3.org/Graphics/SVG/1.1/DTD/svg11.dtd">
<!-- Generated by graphviz version 2.40.1 (20161225.0304)
 -->
<!-- Title: dependencies Pages: 1 -->
<svg width="864pt" height="284pt"
 viewBox="0.00 0.00 864.00 284.00" xmlns="http://www.w3.org/2000/svg" xmlns:xlink="http://www.w3.org/1999/xlink">
<g id="graph0" class="graph" transform="scale(1 1) rotate(0) translate(4 280)">
<title>dependencies</title>
<polygon fill="#ffffff" stroke="transparent" points="-4,4 -4,-280 860,-280 860,4 -4,4"/>
<text text-anchor="start" x="407.0091" y="-42.4" font-family="sans-serif" font-weight="bold" font-size="14.00" fill="#000000">Legend</text>
<polygon fill="#ffffb3" stroke="transparent" points="194,-10 194,-30 214,-30 214,-10 194,-10"/>
<text text-anchor="start" x="217.629" y="-15.4" font-family="sans-serif" font-size="14.00" fill="#000000"> &#160;Declarations</text>
<polygon fill="#8dd3c7" stroke="transparent" points="307,-10 307,-30 327,-30 327,-10 307,-10"/>
<text text-anchor="start" x="330.7251" y="-15.4" font-family="sans-serif" font-size="14.00" fill="#000000"> &#160;Module</text>
<polygon fill="#80b1d3" stroke="transparent" points="393,-10 393,-30 413,-30 413,-10 393,-10"/>
<text text-anchor="start" x="416.7812" y="-15.4" font-family="sans-serif" font-size="14.00" fill="#000000"> &#160;Bootstrap</text>
<polygon fill="#fdb462" stroke="transparent" points="490,-10 490,-30 510,-30 510,-10 490,-10"/>
<text text-anchor="start" x="513.6732" y="-15.4" font-family="sans-serif" font-size="14.00" fill="#000000"> &#160;Providers</text>
<polygon fill="#fb8072" stroke="transparent" points="586,-10 586,-30 606,-30 606,-10 586,-10"/>
<text text-anchor="start" x="609.7258" y="-15.4" font-family="sans-serif" font-size="14.00" fill="#000000"> &#160;Exports</text>
<g id="clust1" class="cluster">
<title>cluster_AppModule</title>
<polygon fill="none" stroke="#000000" stroke-dasharray="1,5" points="8,-70 8,-268 848,-268 848,-70 8,-70"/>
</g>
<g id="clust2" class="cluster">
<title>cluster_AppModule_declarations</title>
<polygon fill="none" stroke="#000000" points="456,-78 456,-130 840,-130 840,-78 456,-78"/>
</g>
<g id="clust6" class="cluster">
<title>cluster_AppModule_imports</title>
<polygon fill="none" stroke="#000000" points="16,-78 16,-130 448,-130 448,-78 16,-78"/>
</g>
<g id="clust8" class="cluster">
<title>cluster_AppModule_bootstrap</title>
<polygon fill="none" stroke="#000000" points="383,-208 383,-260 507,-260 507,-208 383,-208"/>
</g>
<!-- AppComponent -->
<g id="node1" class="node">
<title>AppComponent</title>
<polygon fill="#ffffb3" stroke="#000000" points="831.9399,-122 726.0601,-122 726.0601,-86 831.9399,-86 831.9399,-122"/>
<text text-anchor="middle" x="779" y="-99.8" font-family="Times,serif" font-size="14.00" fill="#000000">AppComponent</text>
</g>
<!-- AppModule -->
<g id="node4" class="node">
<title>AppModule</title>
<polygon fill="#8dd3c7" stroke="#000000" points="486.6571,-187 483.6571,-191 462.6571,-191 459.6571,-187 403.3429,-187 403.3429,-151 486.6571,-151 486.6571,-187"/>
<text text-anchor="middle" x="445" y="-164.8" font-family="Times,serif" font-size="14.00" fill="#000000">AppModule</text>
</g>
<!-- AppComponent&#45;&gt;AppModule -->
<g id="edge1" class="edge">
<title>AppComponent&#45;&gt;AppModule</title>
<path fill="none" stroke="#000000" d="M779,-122.2843C779,-143.3211 779,-175 779,-175 779,-175 496.9631,-175 496.9631,-175"/>
<polygon fill="#000000" stroke="#000000" points="496.9632,-171.5001 486.9631,-175 496.9631,-178.5001 496.9632,-171.5001"/>
</g>
<!-- HeaderComponent -->
<g id="node2" class="node">
<title>HeaderComponent</title>
<polygon fill="#ffffb3" stroke="#000000" points="707.7437,-122 586.2563,-122 586.2563,-86 707.7437,-86 707.7437,-122"/>
<text text-anchor="middle" x="647" y="-99.8" font-family="Times,serif" font-size="14.00" fill="#000000">HeaderComponent</text>
</g>
<!-- HeaderComponent&#45;&gt;AppModule -->
<g id="edge2" class="edge">
<title>HeaderComponent&#45;&gt;AppModule</title>
<path fill="none" stroke="#000000" d="M647,-122.0225C647,-139.3734 647,-163 647,-163 647,-163 496.8545,-163 496.8545,-163"/>
<polygon fill="#000000" stroke="#000000" points="496.8546,-159.5001 486.8545,-163 496.8545,-166.5001 496.8546,-159.5001"/>
</g>
<!-- NavComponent -->
<g id="node3" class="node">
<title>NavComponent</title>
<polygon fill="#ffffb3" stroke="#000000" points="568.1542,-122 463.8458,-122 463.8458,-86 568.1542,-86 568.1542,-122"/>
<text text-anchor="middle" x="516" y="-99.8" font-family="Times,serif" font-size="14.00" fill="#000000">NavComponent</text>
</g>
<!-- NavComponent&#45;&gt;AppModule -->
<g id="edge3" class="edge">
<title>NavComponent&#45;&gt;AppModule</title>
<path fill="none" stroke="#000000" d="M475.2507,-122.1061C475.2507,-122.1061 475.2507,-140.991 475.2507,-140.991"/>
<polygon fill="#000000" stroke="#000000" points="471.7508,-140.9909 475.2507,-150.991 478.7508,-140.991 471.7508,-140.9909"/>
</g>
<!-- AppComponent  -->
<g id="node8" class="node">
<title>AppComponent </title>
<polygon fill="#80b1d3" stroke="#000000" points="499.439,-252 390.561,-252 390.561,-216 499.439,-216 499.439,-252"/>
<text text-anchor="middle" x="445" y="-229.8" font-family="Times,serif" font-size="14.00" fill="#000000">AppComponent </text>
</g>
<!-- AppModule&#45;&gt;AppComponent  -->
<g id="edge7" class="edge">
<title>AppModule&#45;&gt;AppComponent </title>
<path fill="none" stroke="#000000" stroke-dasharray="1,5" d="M445,-187.1061C445,-187.1061 445,-205.991 445,-205.991"/>
<polygon fill="#000000" stroke="#000000" points="441.5001,-205.9909 445,-215.991 448.5001,-205.991 441.5001,-205.9909"/>
</g>
<!-- AppMaterialModule -->
<g id="node5" class="node">
<title>AppMaterialModule</title>
<polygon fill="#8dd3c7" stroke="#000000" points="439.5772,-122 436.5772,-126 415.5772,-126 412.5772,-122 308.4228,-122 308.4228,-86 439.5772,-86 439.5772,-122"/>
<text text-anchor="middle" x="374" y="-99.8" font-family="Times,serif" font-size="14.00" fill="#000000">AppMaterialModule</text>
</g>
<!-- AppMaterialModule&#45;&gt;AppModule -->
<g id="edge4" class="edge">
<title>AppMaterialModule&#45;&gt;AppModule</title>
<path fill="none" stroke="#000000" d="M421.3552,-122.1061C421.3552,-122.1061 421.3552,-140.991 421.3552,-140.991"/>
<polygon fill="#000000" stroke="#000000" points="417.8553,-140.9909 421.3552,-150.991 424.8553,-140.991 417.8553,-140.9909"/>
</g>
<!-- AppRoutingModule -->
<g id="node6" class="node">
<title>AppRoutingModule</title>
<polygon fill="#8dd3c7" stroke="#000000" points="290.2744,-122 287.2744,-126 266.2744,-126 263.2744,-122 161.7256,-122 161.7256,-86 290.2744,-86 290.2744,-122"/>
<text text-anchor="middle" x="226" y="-99.8" font-family="Times,serif" font-size="14.00" fill="#000000">AppRoutingModule</text>
</g>
<!-- AppRoutingModule&#45;&gt;AppModule -->
<g id="edge5" class="edge">
<title>AppRoutingModule&#45;&gt;AppModule</title>
<path fill="none" stroke="#000000" d="M226,-122.0225C226,-139.3734 226,-163 226,-163 226,-163 393.2923,-163 393.2923,-163"/>
<polygon fill="#000000" stroke="#000000" points="393.2923,-166.5001 403.2923,-163 393.2923,-159.5001 393.2923,-166.5001"/>
</g>
<!-- ContainersModule -->
<g id="node7" class="node">
<title>ContainersModule</title>
<polygon fill="#8dd3c7" stroke="#000000" points="144.2022,-122 141.2022,-126 120.2022,-126 117.2022,-122 23.7978,-122 23.7978,-86 144.2022,-86 144.2022,-122"/>
<text text-anchor="middle" x="84" y="-99.8" font-family="Times,serif" font-size="14.00" fill="#000000">ContainersModule</text>
</g>
<!-- ContainersModule&#45;&gt;AppModule -->
<g id="edge6" class="edge">
<title>ContainersModule&#45;&gt;AppModule</title>
<path fill="none" stroke="#000000" d="M84,-122.2843C84,-143.3211 84,-175 84,-175 84,-175 393.236,-175 393.236,-175"/>
<polygon fill="#000000" stroke="#000000" points="393.2361,-178.5001 403.236,-175 393.236,-171.5001 393.2361,-178.5001"/>
</g>
</g>
</svg>
