<?xml version="1.0" encoding="UTF-8" standalone="no"?>
<!DOCTYPE svg PUBLIC "-//W3C//DTD SVG 1.1//EN"
 "http://www.w3.org/Graphics/SVG/1.1/DTD/svg11.dtd">
<!-- Generated by graphviz version 2.40.1 (20161225.0304)
 -->
<!-- Title: dependencies Pages: 1 -->
<svg width="858pt" height="211pt"
 viewBox="0.00 0.00 858.00 211.00" xmlns="http://www.w3.org/2000/svg" xmlns:xlink="http://www.w3.org/1999/xlink">
<g id="graph0" class="graph" transform="scale(1 1) rotate(0) translate(4 207)">
<title>dependencies</title>
<polygon fill="#ffffff" stroke="transparent" points="-4,4 -4,-207 854,-207 854,4 -4,4"/>
<text text-anchor="start" x="404.0091" y="-42.4" font-family="sans-serif" font-weight="bold" font-size="14.00" fill="#000000">Legend</text>
<polygon fill="#ffffb3" stroke="transparent" points="191,-10 191,-30 211,-30 211,-10 191,-10"/>
<text text-anchor="start" x="214.629" y="-15.4" font-family="sans-serif" font-size="14.00" fill="#000000"> &#160;Declarations</text>
<polygon fill="#8dd3c7" stroke="transparent" points="304,-10 304,-30 324,-30 324,-10 304,-10"/>
<text text-anchor="start" x="327.7251" y="-15.4" font-family="sans-serif" font-size="14.00" fill="#000000"> &#160;Module</text>
<polygon fill="#80b1d3" stroke="transparent" points="390,-10 390,-30 410,-30 410,-10 390,-10"/>
<text text-anchor="start" x="413.7812" y="-15.4" font-family="sans-serif" font-size="14.00" fill="#000000"> &#160;Bootstrap</text>
<polygon fill="#fdb462" stroke="transparent" points="487,-10 487,-30 507,-30 507,-10 487,-10"/>
<text text-anchor="start" x="510.6732" y="-15.4" font-family="sans-serif" font-size="14.00" fill="#000000"> &#160;Providers</text>
<polygon fill="#fb8072" stroke="transparent" points="583,-10 583,-30 603,-30 603,-10 583,-10"/>
<text text-anchor="start" x="606.7258" y="-15.4" font-family="sans-serif" font-size="14.00" fill="#000000"> &#160;Exports</text>
<g id="clust1" class="cluster">
<title>cluster_ContainersModule</title>
<polygon fill="none" stroke="#000000" stroke-dasharray="1,5" points="8,-70 8,-195 842,-195 842,-70 8,-70"/>
</g>
<g id="clust2" class="cluster">
<title>cluster_ContainersModule_declarations</title>
<polygon fill="none" stroke="#000000" points="172,-78 172,-130 834,-130 834,-78 172,-78"/>
</g>
<g id="clust8" class="cluster">
<title>cluster_ContainersModule_imports</title>
<polygon fill="none" stroke="#000000" points="16,-78 16,-130 164,-130 164,-78 16,-78"/>
</g>
<!-- AboutComponent -->
<g id="node1" class="node">
<title>AboutComponent</title>
<polygon fill="#ffffb3" stroke="#000000" points="826.3301,-122 709.6699,-122 709.6699,-86 826.3301,-86 826.3301,-122"/>
<text text-anchor="middle" x="768" y="-99.8" font-family="Times,serif" font-size="14.00" fill="#000000">AboutComponent</text>
</g>
<!-- ContainersModule -->
<g id="node6" class="node">
<title>ContainersModule</title>
<polygon fill="#8dd3c7" stroke="#000000" points="503.2022,-187 500.2022,-191 479.2022,-191 476.2022,-187 382.7978,-187 382.7978,-151 503.2022,-151 503.2022,-187"/>
<text text-anchor="middle" x="443" y="-164.8" font-family="Times,serif" font-size="14.00" fill="#000000">ContainersModule</text>
</g>
<!-- AboutComponent&#45;&gt;ContainersModule -->
<g id="edge1" class="edge">
<title>AboutComponent&#45;&gt;ContainersModule</title>
<path fill="none" stroke="#000000" d="M768,-122.2843C768,-143.3211 768,-175 768,-175 768,-175 513.3683,-175 513.3683,-175"/>
<polygon fill="#000000" stroke="#000000" points="513.3684,-171.5001 503.3683,-175 513.3683,-178.5001 513.3684,-171.5001"/>
</g>
<!-- HomeComponent -->
<g id="node2" class="node">
<title>HomeComponent</title>
<polygon fill="#ffffb3" stroke="#000000" points="691.5451,-122 576.4549,-122 576.4549,-86 691.5451,-86 691.5451,-122"/>
<text text-anchor="middle" x="634" y="-99.8" font-family="Times,serif" font-size="14.00" fill="#000000">HomeComponent</text>
</g>
<!-- HomeComponent&#45;&gt;ContainersModule -->
<g id="edge2" class="edge">
<title>HomeComponent&#45;&gt;ContainersModule</title>
<path fill="none" stroke="#000000" d="M634,-122.0225C634,-139.3734 634,-163 634,-163 634,-163 513.1714,-163 513.1714,-163"/>
<polygon fill="#000000" stroke="#000000" points="513.1715,-159.5001 503.1714,-163 513.1714,-166.5001 513.1715,-159.5001"/>
</g>
<!-- PostComponent -->
<g id="node3" class="node">
<title>PostComponent</title>
<polygon fill="#ffffb3" stroke="#000000" points="558.9512,-122 453.0488,-122 453.0488,-86 558.9512,-86 558.9512,-122"/>
<text text-anchor="middle" x="506" y="-99.8" font-family="Times,serif" font-size="14.00" fill="#000000">PostComponent</text>
</g>
<!-- PostComponent&#45;&gt;ContainersModule -->
<g id="edge3" class="edge">
<title>PostComponent&#45;&gt;ContainersModule</title>
<path fill="none" stroke="#000000" d="M478.188,-122.1061C478.188,-122.1061 478.188,-140.991 478.188,-140.991"/>
<polygon fill="#000000" stroke="#000000" points="474.688,-140.9909 478.188,-150.991 481.688,-140.991 474.688,-140.9909"/>
</g>
<!-- PostsComponent -->
<g id="node4" class="node">
<title>PostsComponent</title>
<polygon fill="#ffffb3" stroke="#000000" points="435.3948,-122 324.6052,-122 324.6052,-86 435.3948,-86 435.3948,-122"/>
<text text-anchor="middle" x="380" y="-99.8" font-family="Times,serif" font-size="14.00" fill="#000000">PostsComponent</text>
</g>
<!-- PostsComponent&#45;&gt;ContainersModule -->
<g id="edge4" class="edge">
<title>PostsComponent&#45;&gt;ContainersModule</title>
<path fill="none" stroke="#000000" d="M409.1732,-122.1061C409.1732,-122.1061 409.1732,-140.991 409.1732,-140.991"/>
<polygon fill="#000000" stroke="#000000" points="405.6733,-140.9909 409.1732,-150.991 412.6733,-140.991 405.6733,-140.9909"/>
</g>
<!-- SidenavComponent -->
<g id="node5" class="node">
<title>SidenavComponent</title>
<polygon fill="#ffffb3" stroke="#000000" points="306.4356,-122 179.5644,-122 179.5644,-86 306.4356,-86 306.4356,-122"/>
<text text-anchor="middle" x="243" y="-99.8" font-family="Times,serif" font-size="14.00" fill="#000000">SidenavComponent</text>
</g>
<!-- SidenavComponent&#45;&gt;ContainersModule -->
<g id="edge5" class="edge">
<title>SidenavComponent&#45;&gt;ContainersModule</title>
<path fill="none" stroke="#000000" d="M243,-122.0225C243,-139.3734 243,-163 243,-163 243,-163 372.7222,-163 372.7222,-163"/>
<polygon fill="#000000" stroke="#000000" points="372.7222,-166.5001 382.7222,-163 372.7222,-159.5001 372.7222,-166.5001"/>
</g>
<!-- AppMaterialModule -->
<g id="node7" class="node">
<title>AppMaterialModule</title>
<polygon fill="#8dd3c7" stroke="#000000" points="155.5772,-122 152.5772,-126 131.5772,-126 128.5772,-122 24.4228,-122 24.4228,-86 155.5772,-86 155.5772,-122"/>
<text text-anchor="middle" x="90" y="-99.8" font-family="Times,serif" font-size="14.00" fill="#000000">AppMaterialModule</text>
</g>
<!-- AppMaterialModule&#45;&gt;ContainersModule -->
<g id="edge6" class="edge">
<title>AppMaterialModule&#45;&gt;ContainersModule</title>
<path fill="none" stroke="#000000" d="M90,-122.2843C90,-143.3211 90,-175 90,-175 90,-175 372.7182,-175 372.7182,-175"/>
<polygon fill="#000000" stroke="#000000" points="372.7183,-178.5001 382.7182,-175 372.7182,-171.5001 372.7183,-178.5001"/>
</g>
</g>
</svg>
